# xmcd
#
# Track frame offsets: 
#        150
#        21150
#        39483
#        61410
#        82602
#        107783
#        121583
#        138942
#        156910
#        178412
#        197995
#        216830
#
# Disc length: 3042 seconds
#
# Revision: 0
# Processed by: cddbd v1.5.2PL0 Copyright (c) Steve Scherf et al.
# Submitted via: ExactAudioCopy v0.95a4
#
DISCID=a10be00c
DTITLE=Wynomo - Guitar Lounge
DYEAR=2011
DGENRE=Blues
TTITLE0=Do You Remember?
TTITLE1=One On One
TTITLE2=The Call
TTITLE3=Little Sister
TTITLE4=Cold October Day
TTITLE5=Two Of A Kind
TTITLE6=Moka
TTITLE7=Morning Dew
TTITLE8=Don't Look Back
TTITLE9=So Long Ago
TTITLE10=Te Anau
TTITLE11=Days Like These
EXTD=
EXTT0=
EXTT1=
EXTT2=
EXTT3=
EXTT4=
EXTT5=
EXTT6=
EXTT7=
EXTT8=
EXTT9=
EXTT10=
EXTT11=
PLAYORDER=
